<svg xmlns="http://www.w3.org/2000/svg" width="140" height="40" viewBox="0 0 140 40" fill="current" stroke="current">
<g style="mix-blend-mode:luminosity" opacity="0.5">
<path d="M14.1185 24.5833C19.2936 24.5833 23.4889 20.4793 23.4889 15.4167C23.4889 10.3541 19.2936 6.25 14.1185 6.25H1V24.5833H14.1185Z" fill="#F38744"/>
<path d="M1 6.25L23.4889 33.75H8.4963L1 24.5833V6.25Z" fill="#2E90FA"/>
<path d="M15.8629 24.4248C15.2977 24.5289 14.7146 24.5833 14.1185 24.5833H1V6.25L15.8629 24.4248Z" fill="#53B1FD"/>
<path d="M38.9116 26.425C37.5998 26.425 36.4728 26.1683 35.5306 25.655C34.6004 25.13 33.8849 24.395 33.384 23.45C32.8831 22.4933 32.6326 21.3675 32.6326 20.0725C32.6326 18.7775 32.8831 17.6575 33.384 16.7125C33.8849 15.7675 34.6004 15.0383 35.5306 14.525C36.4728 14 37.5998 13.7375 38.9116 13.7375C39.7584 13.7375 40.5574 13.8658 41.3087 14.1225C42.072 14.3792 42.6981 14.7467 43.1871 15.225L42.4357 17.01C41.8991 16.5667 41.3505 16.2458 40.79 16.0475C40.2294 15.8375 39.6272 15.7325 38.9832 15.7325C37.7071 15.7325 36.7351 16.1117 36.0673 16.87C35.3994 17.6167 35.0655 18.6842 35.0655 20.0725C35.0655 21.4608 35.3994 22.5342 36.0673 23.2925C36.7351 24.0508 37.7071 24.43 38.9832 24.43C39.6272 24.43 40.2294 24.3308 40.79 24.1325C41.3505 23.9225 41.8991 23.5958 42.4357 23.1525L43.1871 24.9375C42.6981 25.4042 42.072 25.7717 41.3087 26.04C40.5574 26.2967 39.7584 26.425 38.9116 26.425Z" fill="#101828"/>
<path d="M48.3311 26.425C47.4247 26.425 46.6376 26.2442 45.9698 25.8825C45.3019 25.5208 44.7831 25.0075 44.4134 24.3425C44.0437 23.6658 43.8589 22.8725 43.8589 21.9625C43.8589 21.0525 44.0437 20.265 44.4134 19.6C44.7831 18.935 45.3019 18.4217 45.9698 18.06C46.6376 17.6983 47.4247 17.5175 48.3311 17.5175C49.2375 17.5175 50.0246 17.6983 50.6924 18.06C51.3603 18.4217 51.8791 18.935 52.2488 19.6C52.6185 20.265 52.8033 21.0525 52.8033 21.9625C52.8033 22.8725 52.6185 23.6658 52.2488 24.3425C51.8791 25.0075 51.3603 25.5208 50.6924 25.8825C50.0246 26.2442 49.2375 26.425 48.3311 26.425ZM48.3311 24.7625C48.999 24.7625 49.5356 24.5292 49.9411 24.0625C50.3466 23.5842 50.5493 22.8842 50.5493 21.9625C50.5493 21.0292 50.3466 20.335 49.9411 19.88C49.5356 19.4133 48.999 19.18 48.3311 19.18C47.6633 19.18 47.1266 19.4133 46.7211 19.88C46.3156 20.335 46.1129 21.0292 46.1129 21.9625C46.1129 22.8842 46.3156 23.5842 46.7211 24.0625C47.1266 24.5292 47.6633 24.7625 48.3311 24.7625Z" fill="#101828"/>
<path d="M54.6848 26.25V17.6925H56.8673V19.005C57.1296 18.5383 57.4934 18.1767 57.9585 17.92C58.4236 17.6517 58.9603 17.5175 59.5685 17.5175C60.8804 17.5175 61.739 18.0775 62.1445 19.1975C62.4188 18.6725 62.8124 18.2642 63.3252 17.9725C63.838 17.6692 64.4224 17.5175 65.0783 17.5175C67.0461 17.5175 68.0299 18.69 68.0299 21.035V26.25H65.7938V21.1225C65.7938 20.4692 65.6805 19.9908 65.4539 19.6875C65.2393 19.3842 64.8696 19.2325 64.3448 19.2325C63.7605 19.2325 63.3013 19.4367 62.9674 19.845C62.6335 20.2417 62.4665 20.7958 62.4665 21.5075V26.25H60.2304V21.1225C60.2304 20.4692 60.1171 19.9908 59.8905 19.6875C59.6758 19.3842 59.3121 19.2325 58.7993 19.2325C58.2149 19.2325 57.7558 19.4367 57.4218 19.845C57.0879 20.2417 56.9209 20.7958 56.9209 21.5075V26.25H54.6848Z" fill="#101828"/>
<path d="M70.3726 26.25V17.6925H72.555V19.005C72.8174 18.5383 73.1811 18.1767 73.6462 17.92C74.1113 17.6517 74.648 17.5175 75.2562 17.5175C76.5681 17.5175 77.4267 18.0775 77.8322 19.1975C78.1065 18.6725 78.5001 18.2642 79.0129 17.9725C79.5257 17.6692 80.1101 17.5175 80.766 17.5175C82.7338 17.5175 83.7177 18.69 83.7177 21.035V26.25H81.4816V21.1225C81.4816 20.4692 81.3683 19.9908 81.1417 19.6875C80.927 19.3842 80.5573 19.2325 80.0326 19.2325C79.4482 19.2325 78.989 19.4367 78.6551 19.845C78.3212 20.2417 78.1542 20.7958 78.1542 21.5075V26.25H75.9181V21.1225C75.9181 20.4692 75.8048 19.9908 75.5782 19.6875C75.3636 19.3842 74.9998 19.2325 74.487 19.2325C73.9026 19.2325 73.4435 19.4367 73.1096 19.845C72.7756 20.2417 72.6087 20.7958 72.6087 21.5075V26.25H70.3726Z" fill="#101828"/>
<path d="M88.9046 26.425C88.2725 26.425 87.706 26.3083 87.2052 26.075C86.7162 25.83 86.3286 25.5033 86.0424 25.095C85.7681 24.6867 85.6309 24.2258 85.6309 23.7125C85.6309 23.0825 85.7979 22.5867 86.1318 22.225C86.4657 21.8517 87.0084 21.5833 87.7597 21.42C88.511 21.2567 89.5188 21.175 90.7829 21.175H91.409V20.8075C91.409 20.2242 91.2779 19.8042 91.0155 19.5475C90.7531 19.2908 90.3119 19.1625 89.6917 19.1625C89.2027 19.1625 88.7019 19.2383 88.189 19.39C87.6762 19.53 87.1575 19.7517 86.6327 20.055L85.9887 18.5675C86.2988 18.3575 86.6625 18.1767 87.0799 18.025C87.5093 17.8617 87.9565 17.7392 88.4216 17.6575C88.8986 17.5642 89.3459 17.5175 89.7633 17.5175C91.0393 17.5175 91.9875 17.8092 92.6076 18.3925C93.2277 18.9642 93.5378 19.8567 93.5378 21.07V26.25H91.4448V24.885C91.2421 25.3633 90.9201 25.7425 90.4788 26.0225C90.0376 26.2908 89.5128 26.425 88.9046 26.425ZM89.3697 24.92C89.9541 24.92 90.4371 24.7217 90.8187 24.325C91.2123 23.9283 91.409 23.4267 91.409 22.82V22.435H90.8008C89.6798 22.435 88.8986 22.5225 88.4574 22.6975C88.028 22.8608 87.8134 23.1642 87.8134 23.6075C87.8134 23.9925 87.9505 24.3075 88.2248 24.5525C88.4991 24.7975 88.8807 24.92 89.3697 24.92Z" fill="#101828"/>
<path d="M95.8074 26.25V17.6925H97.9898V19.0225C98.288 18.5325 98.6875 18.1592 99.1884 17.9025C99.7012 17.6458 100.274 17.5175 100.906 17.5175C102.969 17.5175 104 18.69 104 21.035V26.25H101.764V21.14C101.764 20.475 101.633 19.9908 101.371 19.6875C101.12 19.3842 100.727 19.2325 100.19 19.2325C99.5342 19.2325 99.0095 19.4367 98.6159 19.845C98.2343 20.2417 98.0435 20.7725 98.0435 21.4375V26.25H95.8074Z" fill="#101828"/>
<path d="M109.635 26.425C108.872 26.425 108.198 26.2442 107.613 25.8825C107.041 25.5208 106.594 25.0075 106.272 24.3425C105.95 23.6658 105.789 22.8725 105.789 21.9625C105.789 21.0408 105.95 20.2533 106.272 19.6C106.594 18.935 107.041 18.4217 107.613 18.06C108.198 17.6983 108.872 17.5175 109.635 17.5175C110.255 17.5175 110.815 17.6517 111.316 17.92C111.817 18.1883 112.193 18.5442 112.443 18.9875V13.9125H114.679V26.25H112.497V24.8325C112.258 25.3225 111.883 25.7133 111.37 26.005C110.857 26.285 110.279 26.425 109.635 26.425ZM110.261 24.7625C110.929 24.7625 111.465 24.5292 111.871 24.0625C112.276 23.5842 112.479 22.8842 112.479 21.9625C112.479 21.0292 112.276 20.335 111.871 19.88C111.465 19.4133 110.929 19.18 110.261 19.18C109.593 19.18 109.056 19.4133 108.651 19.88C108.245 20.335 108.043 21.0292 108.043 21.9625C108.043 22.8842 108.245 23.5842 108.651 24.0625C109.056 24.5292 109.593 24.7625 110.261 24.7625Z" fill="#101828"/>
<path d="M120.379 25.55V21.9975H116.837V20.4575H120.379V17.01H122.025V20.4575H125.567V21.9975H122.025V25.55H120.379Z" fill="#101828"/>
<path d="M127.939 26.25V13.9125H133.413C134.796 13.9125 135.864 14.2392 136.615 14.8925C137.366 15.5342 137.742 16.4383 137.742 17.605C137.742 18.5267 137.498 19.2908 137.009 19.8975C136.52 20.4925 135.816 20.895 134.898 21.105C135.506 21.2917 136.007 21.7408 136.4 22.4525L138.511 26.25H135.989L133.807 22.3125C133.592 21.9275 133.336 21.665 133.037 21.525C132.751 21.385 132.381 21.315 131.928 21.315H130.229V26.25H127.939ZM130.229 19.6525H133.019C134.689 19.6525 135.524 18.9875 135.524 17.6575C135.524 16.3392 134.689 15.68 133.019 15.68H130.229V19.6525Z" fill="#101828"/>
</g>
</svg>