<svg xmlns="http://www.w3.org/2000/svg" width="140" height="40" viewBox="0 0 140 40" fill="current" stroke="current">
<g style="mix-blend-mode:luminosity" opacity="0.5">
<path d="M40.7771 20.177C40.7771 27.95 34.4521 34.2604 26.6386 34.2604C18.825 34.2604 12.5 27.95 12.5 20.177C12.5 12.404 18.825 6.09369 26.6386 6.09369C34.4521 6.09369 40.7771 12.404 40.7771 20.177Z" stroke="#6927DA" stroke-width="3"/>
<path d="M32.1105 25.6296C29.2135 28.5163 25.9465 30.3846 23.0657 31.1227C20.1471 31.8706 17.9196 31.4094 16.6431 30.1374C15.3666 28.8654 14.9037 26.6458 15.6542 23.7375C16.395 20.8669 18.2699 17.6113 21.1669 14.7246C24.0638 11.8379 27.3309 9.96957 30.2117 9.23141C33.1303 8.48356 35.3578 8.9448 36.6343 10.2168C37.9107 11.4888 38.3736 13.7084 37.6231 16.6167C36.8823 19.4873 35.0075 22.7428 32.1105 25.6296Z" stroke="#6927DA" stroke-width="3"/>
<path d="M32.1101 14.7246C35.0071 17.6113 36.882 20.8668 37.6228 23.7375C38.3733 26.6457 37.9104 28.8654 36.6339 30.1374C35.3574 31.4093 33.1299 31.8706 30.2114 31.1227C27.3305 30.3846 24.0635 28.5163 21.1665 25.6295C18.2696 22.7428 16.3947 19.4873 15.6539 16.6167C14.9034 13.7084 15.3663 11.4887 16.6427 10.2168C17.9192 8.94478 20.1467 8.48353 23.0653 9.23138C25.9461 9.96954 29.2132 11.8378 32.1101 14.7246Z" stroke="#6927DA" stroke-width="3"/>
<path d="M55.6764 27.2534C59.0245 27.2534 61.285 25.5109 61.285 22.7271C61.285 16.8409 53.4372 19.3484 53.4372 16.2459C53.4372 15.3746 54.2263 14.7796 55.4845 14.7796C56.9133 14.7796 57.8089 15.5446 57.9156 16.7134H60.9651C60.8798 13.8871 58.7046 12.0384 55.4845 12.0384C52.4563 12.0384 50.3237 13.7809 50.3237 16.2459C50.3237 22.0896 58.0648 19.8584 58.0648 22.7696C58.0648 23.8959 57.1052 24.4909 55.6764 24.4909C54.0983 24.4909 53.096 23.5346 52.9681 22.0259H49.8972C50.0252 25.1921 52.2857 27.2534 55.6764 27.2534Z" fill="#101828"/>
<path d="M62.0103 31.4184H64.9745V26.1271C65.5503 26.8496 66.5952 27.2534 67.8108 27.2534C70.9029 27.2534 72.9928 25.0646 72.9928 21.7284C72.9928 18.3921 71.0735 16.2034 68.0667 16.2034C66.6805 16.2034 65.6143 16.7134 64.9745 17.5421V16.3734H62.0103V31.4184ZM67.4482 24.7034C65.8488 24.7034 64.8039 23.5134 64.8039 21.7284C64.8039 19.9221 65.8488 18.7321 67.4482 18.7321C69.005 18.7321 70.0712 19.9221 70.0712 21.7284C70.0712 23.5134 69.005 24.7034 67.4482 24.7034Z" fill="#101828"/>
<path d="M73.71 27.0834H76.6743V21.2184C76.6743 19.8371 77.5912 18.8384 78.8921 18.8384C80.129 18.8384 80.982 19.7734 80.982 21.0696V27.0834H83.9462V20.4109C83.9462 17.9459 82.3681 16.2034 79.9584 16.2034C78.4656 16.2034 77.2927 16.8196 76.6743 17.8609V11.7196H73.71V27.0834Z" fill="#101828"/>
<path d="M92.2384 23.4496C92.0038 24.3634 91.2148 24.8309 90.0206 24.8309C88.5278 24.8309 87.5682 23.8959 87.3549 22.3871H95.0747C95.096 22.1534 95.1173 21.8346 95.1173 21.4309C95.1173 18.9871 93.6032 16.2034 89.8073 16.2034C86.1607 16.2034 84.4973 18.9871 84.4973 21.7071C84.4973 24.4059 86.3739 27.2534 90.0206 27.2534C92.6649 27.2534 94.7121 25.7659 95.1386 23.4496H92.2384ZM89.8073 18.3709C91.2361 18.3709 92.0678 19.3271 92.1531 20.5171H87.3975C87.6535 19.0296 88.4638 18.3709 89.8073 18.3709Z" fill="#101828"/>
<path d="M102.891 18.8384V16.3734H101.362C100.061 16.3734 99.2509 16.8196 98.6751 18.1584V16.3734H95.6895V27.0834H98.6751V21.8771C98.6751 20.0496 99.3362 18.8384 100.807 18.8384H102.891Z" fill="#101828"/>
<path d="M113.128 16.3734H110.142V22.2384C110.142 23.5984 109.225 24.6184 107.924 24.6184C106.709 24.6184 105.856 23.6834 105.856 22.3871V16.3734H102.891V23.0459C102.891 25.4896 104.469 27.2534 106.879 27.2534C108.351 27.2534 109.545 26.6159 110.142 25.5959V27.0834H113.128V16.3734Z" fill="#101828"/>
<path d="M114.407 27.0834H117.371V11.7196H114.407V27.0834Z" fill="#101828"/>
<path d="M125.834 23.4496C125.599 24.3634 124.81 24.8309 123.616 24.8309C122.123 24.8309 121.164 23.8959 120.951 22.3871H128.67C128.692 22.1534 128.713 21.8346 128.713 21.4309C128.713 18.9871 127.199 16.2034 123.403 16.2034C119.756 16.2034 118.093 18.9871 118.093 21.7071C118.093 24.4059 119.97 27.2534 123.616 27.2534C126.261 27.2534 128.308 25.7659 128.734 23.4496H125.834ZM123.403 18.3709C124.832 18.3709 125.663 19.3271 125.749 20.5171H120.993C121.249 19.0296 122.059 18.3709 123.403 18.3709Z" fill="#101828"/>
</g>
</svg>